<svg width="24" height="24" viewBox="0 0 24 24" fill="none" xmlns="http://www.w3.org/2000/svg">
<circle cx="12" cy="12" r="12" fill="#2C6BC9"/>
<path fill-rule="evenodd" clip-rule="evenodd" d="M8.40039 13.953C8.40039 12.4839 11.0356 7.20001 12.0004 7.20001C13.0036 7.20001 15.6004 12.4326 15.6004 13.953C15.6004 15.8847 13.9886 17.4507 12.0004 17.4507C10.0122 17.4507 8.40039 15.8847 8.40039 13.953ZM12.0052 8.4657L12.0004 8.45923H12.01L12.0052 8.4657ZM12.0052 8.4657C12.7423 9.45209 13.3516 10.5228 13.8196 11.6538H10.1812C10.6626 10.5272 11.2745 9.45761 12.0052 8.4657ZM14.2325 12.6192C14.3675 12.9299 14.4689 13.2535 14.5349 13.5846H9.45646C9.5235 13.2532 9.62648 12.9296 9.76366 12.6192H14.2325ZM9.44703 14.5545C9.75976 15.696 10.7874 16.5162 12.0006 16.5925C13.2138 16.5162 14.2415 15.696 14.5542 14.5545H9.44703Z" fill="white"/>
</svg>
