<svg width="24" height="24" viewBox="0 0 24 24" fill="none" xmlns="http://www.w3.org/2000/svg">
<circle cx="12" cy="12" r="12" fill="#F9DA62"/>
<path fill-rule="evenodd" clip-rule="evenodd" d="M8.40039 13.9591C8.40039 12.4887 11.0356 7.20001 12.0004 7.20001C13.0036 7.20001 15.6004 12.4374 15.6004 13.9591C15.6004 15.8926 13.9886 17.46 12.0004 17.46C10.0122 17.46 8.40039 15.8926 8.40039 13.9591ZM12.0053 8.36909C12.0037 8.36676 12.0021 8.36442 12.0005 8.36208H12.0101C12.0085 8.36442 12.0069 8.36676 12.0053 8.36909ZM12.0053 8.36909C11.1152 9.67723 10.3641 11.07 9.76367 12.5258H14.2325C13.6477 11.0656 12.9009 9.6718 12.0053 8.36909Z" fill="white"/>
</svg>
